<svg t="1778418745108" class="icon" viewBox="0 0 1024 1024" version="1.1" xmlns="http://www.w3.org/2000/svg" p-id="6124" width="200" height="200"><path d="M170.666667 170.666667h256v256H170.666667V170.666667z m682.666666 0v256h-256V170.666667h256z m-256 469.333333h85.333334v-85.333333h-85.333334v-85.333334h85.333334v85.333334h85.333333v-85.333334h85.333333v85.333334h-85.333333v85.333333h85.333333v128h-85.333333v85.333333h-85.333333v-85.333333h-128v85.333333h-85.333334v-170.666666h128v-42.666667z m85.333334 0v128h85.333333v-128h-85.333333zM170.666667 853.333333v-256h256v256H170.666667zM256 256v85.333333h85.333333V256H256z m426.666667 0v85.333333h85.333333V256h-85.333333zM256 682.666667v85.333333h85.333333v-85.333333H256z m-85.333333-213.333334h85.333333v85.333334H170.666667v-85.333334z m213.333333 0h170.666667v170.666667h-85.333334v-85.333333H384v-85.333334z m85.333333-213.333333h85.333334v170.666667h-85.333334V256zM85.333333 85.333333v170.666667H0V85.333333a85.333333 85.333333 0 0 1 85.333333-85.333333h170.666667v85.333333H85.333333z m853.333334-85.333333a85.333333 85.333333 0 0 1 85.333333 85.333333v170.666667h-85.333333V85.333333h-170.666667V0h170.666667zM85.333333 768v170.666667h170.666667v85.333333H85.333333a85.333333 85.333333 0 0 1-85.333333-85.333333v-170.666667h85.333333z m853.333334 170.666667v-170.666667h85.333333v170.666667a85.333333 85.333333 0 0 1-85.333333 85.333333h-170.666667v-85.333333h170.666667z" p-id="6125"></path></svg>